<?xml version="1.0" encoding="UTF-8" standalone="no"?>
<!-- Generator: Adobe Illustrator 15.0.0, SVG Export Plug-In . SVG Version: 6.00 Build 0)  -->

<svg
   version="1.1"
   id="レイヤー_1"
   x="0px"
   y="0px"
   width="236.68214"
   height="348.48254"
   viewBox="0 0 236.68214 348.48255"
   enable-background="new 0 0 401.98 559.472"
   xml:space="preserve"
   sodipodi:docname="goerrorcodes.svg"
   inkscape:version="1.1 (c68e22c387, 2021-05-23)"
   xmlns:inkscape="http://www.inkscape.org/namespaces/inkscape"
   xmlns:sodipodi="http://sodipodi.sourceforge.net/DTD/sodipodi-0.dtd"
   xmlns="http://www.w3.org/2000/svg"
   xmlns:svg="http://www.w3.org/2000/svg"><defs
   id="defs59" /><sodipodi:namedview
   id="namedview57"
   pagecolor="#ffffff"
   bordercolor="#666666"
   borderopacity="1.0"
   inkscape:pageshadow="2"
   inkscape:pageopacity="0.0"
   inkscape:pagecheckerboard="0"
   showgrid="false"
   inkscape:zoom="3.1207997"
   inkscape:cx="297.03925"
   inkscape:cy="187.61217"
   inkscape:window-width="2560"
   inkscape:window-height="1377"
   inkscape:window-x="1912"
   inkscape:window-y="-8"
   inkscape:window-maximized="1"
   inkscape:current-layer="レイヤー_1" />


<path
   fill-rule="evenodd"
   clip-rule="evenodd"
   fill="#6ad7e5"
   stroke="#000000"
   stroke-width="3"
   stroke-linecap="round"
   d="M 20.432616,65.986363 C -18.880749,54.933553 10.352116,4.9312633 41.921732,25.497853 Z"
   id="path6"
   style="fill:#a57cc7;fill-opacity:1" />
<path
   fill-rule="evenodd"
   clip-rule="evenodd"
   fill="#6ad7e5"
   stroke="#000000"
   stroke-width="3"
   stroke-linecap="round"
   d="m 195.10087,21.745793 c 31.11778,-21.85204972 59.23769,27.45016 23.07281,39.85491 z"
   id="path8"
   style="fill:#a57cc7;fill-opacity:1" />
<path
   fill-rule="evenodd"
   clip-rule="evenodd"
   fill="#f6d2a2"
   stroke="#000000"
   stroke-width="3"
   stroke-linecap="round"
   d="m 201.79425,314.66151 c 7.90414,4.88955 22.35171,19.67421 10.49452,26.84328 -11.39297,10.42899 -17.76948,-11.44718 -27.76913,-14.47829 4.30643,-5.84712 9.76493,-11.17862 17.27461,-12.36499 z"
   id="path10" />
<path
   fill-rule="evenodd"
   clip-rule="evenodd"
   fill="none"
   stroke="#000000"
   stroke-width="1.95577"
   stroke-linecap="round"
   d="m 212.28877,341.50414 c -1.75778,-3.49458 -2.34783,-7.57322 -5.28247,-10.38988"
   id="path12" />
<path
   fill-rule="evenodd"
   clip-rule="evenodd"
   fill="#f6d2a2"
   stroke="#000000"
   stroke-width="3"
   stroke-linecap="round"
   d="m 60.583794,331.36979 c -9.277241,1.43538 -14.499072,9.80321 -22.233041,14.05263 -7.288004,4.3446 -10.075937,-1.39105 -10.732496,-2.55526 -1.142296,-0.52083 -1.046453,0.48498 -2.809448,-1.29001 -6.755976,-10.6604 7.039594,-18.45264 14.223279,-23.74829 10.005521,-2.02204 16.275766,6.6502 21.551706,13.54093 z"
   id="path14" />
<path
   fill-rule="evenodd"
   clip-rule="evenodd"
   fill="none"
   stroke="#000000"
   stroke-width="1.95577"
   stroke-linecap="round"
   d="m 27.618909,342.86651 c 0.353382,-4.06299 3.575543,-6.78383 5.11034,-10.21909"
   id="path16" />
<path
   fill-rule="evenodd"
   clip-rule="evenodd"
   d="m 22.073036,52.176213 c -5.186623,-2.74299 -8.991668,-6.46833 -5.819058,-12.46602 2.937239,-5.55248 8.393788,-4.94951 13.581063,-2.20652 z"
   id="path18"
   style="stroke-width:0.651924" />
<path
   fill-rule="evenodd"
   clip-rule="evenodd"
   d="m 209.98006,46.961403 c 5.18662,-2.743 8.99166,-6.46834 5.81905,-12.46603 -2.93723,-5.55248 -8.39378,-4.94951 -13.58106,-2.20652 z"
   id="path20"
   style="stroke-width:0.651924" />


<g
   id="g28"
   transform="matrix(0.65199538,0,0,0.65185235,-10.20921,-7.5771317)"
   style="fill:#a57cc7;fill-opacity:1">
	<path
   fill-rule="evenodd"
   clip-rule="evenodd"
   fill="#6ad7e5"
   stroke="#000000"
   stroke-width="3"
   stroke-linecap="round"
   d="m 195.512,13.124 c 60.365,0 116.953,8.633 146.452,66.629 26.478,65.006 17.062,135.104 21.1,203.806 3.468,58.992 11.157,127.145 -16.21,181.812 -28.79,57.514 -100.73,71.982 -160,69.863 C 140.299,533.568 84.06,518.38 57.785,475.845 26.959,425.945 41.553,351.747 43.792,296.223 46.444,230.452 25.977,164.481 47.584,100.122 69.999,33.359 130.451,18.271 195.512,13.124"
   id="path26"
   style="fill:#a57cc7;fill-opacity:1" />
</g><text
   xml:space="preserve"
   style="font-style:normal;font-variant:normal;font-weight:normal;font-stretch:normal;font-size:19.2143px;line-height:1.25;font-family:Unispace;-inkscape-font-specification:'Unispace, Normal';font-variant-ligatures:normal;font-variant-caps:normal;font-variant-numeric:normal;font-variant-east-asian:normal;fill:#000000;fill-opacity:1;stroke:none;stroke-width:0.480358"
   x="-164.7233"
   y="194.11188"
   id="text7042"
   transform="matrix(-1.0320342,0.07259936,0.08977479,0.96264484,0,0)"><tspan
     sodipodi:role="line"
     x="-164.7233"
     y="194.11188"
     id="tspan7044"
     style="font-style:normal;font-variant:normal;font-weight:normal;font-stretch:normal;font-size:19.2143px;font-family:Unispace;-inkscape-font-specification:'Unispace, Normal';font-variant-ligatures:normal;font-variant-caps:normal;font-variant-numeric:normal;font-variant-east-asian:normal;stroke-width:0.480358">HTTP error</tspan><tspan
     sodipodi:role="line"
     x="-164.7233"
     y="218.12976"
     id="tspan7048"
     style="font-style:normal;font-variant:normal;font-weight:normal;font-stretch:normal;font-size:19.2143px;font-family:Unispace;-inkscape-font-specification:'Unispace, Normal';font-variant-ligatures:normal;font-variant-caps:normal;font-variant-numeric:normal;font-variant-east-asian:normal;stroke-width:0.480358" /></text><text
   xml:space="preserve"
   style="font-style:normal;font-variant:normal;font-weight:normal;font-stretch:normal;font-size:23.2996px;line-height:1.25;font-family:'Delugia Nerd Font';-inkscape-font-specification:'Delugia Nerd Font, Normal';font-variant-ligatures:normal;font-variant-caps:normal;font-variant-numeric:normal;font-variant-east-asian:normal;fill:#000000;fill-opacity:1;stroke:none;stroke-width:0.582489"
   x="-180.89091"
   y="210.79158"
   id="text7042-4"
   transform="matrix(-0.96143228,0.08223655,0.08832055,1.0325603,0,0)"><tspan
     sodipodi:role="line"
     x="-180.89091"
     y="210.79158"
     id="tspan7048-7"
     style="font-style:normal;font-variant:normal;font-weight:normal;font-stretch:normal;font-size:23.2996px;font-family:'Delugia Nerd Font';-inkscape-font-specification:'Delugia Nerd Font, Normal';font-variant-ligatures:normal;font-variant-caps:normal;font-variant-numeric:normal;font-variant-east-asian:normal;stroke-width:0.582489">404</tspan></text><text
   xml:space="preserve"
   style="font-style:normal;font-variant:normal;font-weight:normal;font-stretch:normal;font-size:15.6667px;line-height:1.25;font-family:'DejaVu Sans';-inkscape-font-specification:'DejaVu Sans, Normal';font-variant-ligatures:normal;font-variant-caps:normal;font-variant-numeric:normal;font-variant-east-asian:normal;fill:#000000;fill-opacity:1;stroke:none;stroke-width:0.391666"
   x="-185.77632"
   y="234.97919"
   id="text12149"
   transform="matrix(-0.97366787,0.08440871,0.09284856,1.0189951,0,0)"><tspan
     sodipodi:role="line"
     x="-185.77632"
     y="234.97919"
     id="tspan12147"
     style="font-style:normal;font-variant:normal;font-weight:normal;font-stretch:normal;font-size:15.6667px;font-family:'DejaVu Sans';-inkscape-font-specification:'DejaVu Sans, Normal';font-variant-ligatures:normal;font-variant-caps:normal;font-variant-numeric:normal;font-variant-east-asian:normal;stroke-width:0.391666">User not found</tspan></text><rect
   style="fill:#dfe1c7;fill-opacity:0.897059;stroke:#e0d3bd;stroke-width:1.07802;stroke-linejoin:round;stroke-miterlimit:4;stroke-dasharray:none;stroke-opacity:0.935294"
   id="rect898"
   width="177.99725"
   height="88.568802"
   x="48.112133"
   y="169.34085"
   ry="1.3089521"
   transform="matrix(0.99514272,-0.09844275,-0.05003283,0.99874757,0,0)" /><path
   fill-rule="evenodd"
   clip-rule="evenodd"
   fill="#f6d2a2"
   stroke="#000000"
   stroke-width="3"
   stroke-linecap="round"
   d="m 40.137688,185.58098 c -0.498124,10.26733 -10.757271,5.51663 -15.404042,2.30691 -4.410749,-3.04741 -5.700395,-0.51431 -6.087681,-6.5283 -0.253626,-3.95284 -0.709371,-7.90567 -0.485084,-11.87414 6.669912,-0.60427 13.924665,0.98364 19.39295,4.95538 2.81662,2.04616 8.097782,8.57707 2.583857,11.14015"
   id="path2" /><path
   fill-rule="evenodd"
   clip-rule="evenodd"
   fill="#c6b198"
   stroke="#000000"
   stroke-width="3"
   stroke-linecap="round"
   d="m 40.137688,185.58098 c -1.493069,-0.55537 -3.075461,-0.94975 -4.088662,-2.29973"
   id="path4" />
<path
   fill-rule="evenodd"
   clip-rule="evenodd"
   fill="#ffffff"
   stroke="#000000"
   stroke-width="2.9081"
   stroke-linecap="round"
   d="m 124.21202,53.801283 c 7.06633,41.06866 74.21142,30.2101 64.5671,-11.2099 -8.64806,-37.1425497 -66.91559,-26.86153 -64.5671,11.2099"
   id="path30" />
<path
   fill-rule="evenodd"
   clip-rule="evenodd"
   fill="#ffffff"
   stroke="#000000"
   stroke-width="2.8214"
   stroke-linecap="round"
   d="m 43.973561,60.443663 c 9.158579,35.7541 66.414849,26.60014 64.256749,-9.26478 -2.58581,-42.9538097 -73.013047,-34.66551 -64.256749,9.26478"
   id="path32" />
<path
   fill-rule="evenodd"
   clip-rule="evenodd"
   fill="#ffffff"
   stroke="#000000"
   stroke-width="3"
   stroke-linecap="round"
   d="m 132.31306,103.08262 c 0.03,5.33933 1.21337,11.33376 0.20343,17.014 -1.36333,2.57612 -4.03781,2.8486 -6.34327,3.88961 -3.18826,-0.49998 -5.86926,-2.59307 -7.14782,-5.57465 -0.81826,-6.48332 0.30513,-12.76066 0.51181,-19.246587 z"
   id="path34" />
<g
   id="g40"
   transform="matrix(0.65199538,0,0,0.65185235,5.6513,5.7910133)">
	<ellipse
   fill-rule="evenodd"
   clip-rule="evenodd"
   cx="107.324"
   cy="95.403999"
   rx="14.829"
   ry="16.062"
   id="ellipse36" />
	<ellipse
   fill-rule="evenodd"
   clip-rule="evenodd"
   fill="#ffffff"
   cx="109.55129"
   cy="103.2001"
   rx="3.4960001"
   ry="4.0819998"
   id="ellipse38" />
</g>
<g
   id="g46"
   transform="matrix(0.65199538,0,0,0.65185235,6.104457,5.7910133)">
	<ellipse
   fill-rule="evenodd"
   clip-rule="evenodd"
   cx="231.571"
   cy="91.403999"
   rx="14.582"
   ry="16.062"
   id="ellipse42" />
	<ellipse
   fill-rule="evenodd"
   clip-rule="evenodd"
   fill="#ffffff"
   cx="232.29622"
   cy="98.852509"
   rx="3.438"
   ry="4.0819998"
   id="ellipse44" />
</g>
<path
   fill-rule="evenodd"
   clip-rule="evenodd"
   fill="#ffffff"
   stroke="#000000"
   stroke-width="3"
   stroke-linecap="round"
   d="m 104.68345,102.50117 c -4.21841,10.22105 2.3524,30.65988 13.79818,15.58449 -0.81825,-6.48333 0.30514,-12.76066 0.51182,-19.246587 z"
   id="path48" />
<g
   id="g54"
   transform="matrix(0.65199538,0,0,0.65185235,-10.20921,-7.5771317)">
	<path
   fill-rule="evenodd"
   clip-rule="evenodd"
   fill="#f6d2a2"
   stroke="#231f20"
   stroke-width="3"
   stroke-linecap="round"
   d="m 178.431,138.673 c -12.059,1.028 -21.916,15.366 -15.646,26.709 8.303,15.024 26.836,-1.329 38.379,0.203 13.285,0.272 24.17,14.047 34.84,2.49 11.867,-12.854 -5.109,-25.373 -18.377,-30.97 z"
   id="path50" />
	<path
   fill-rule="evenodd"
   clip-rule="evenodd"
   d="m 176.913,138.045 c -0.893,-20.891 38.938,-23.503 43.642,-6.016 4.692,17.446 -41.681,21.498 -43.642,6.016 -1.565,-12.363 0,0 0,0 z"
   id="path52" />
</g>
<path
   fill-rule="evenodd"
   clip-rule="evenodd"
   fill="#f6d2a2"
   stroke="#000000"
   stroke-width="3"
   stroke-linecap="round"
   d="m 205.97203,179.31585 c 1.49325,10.17037 11.24233,4.44544 15.55529,0.79945 4.09382,-3.4615 5.62347,-1.06568 5.42464,-7.08884 -0.13159,-3.95878 -0.062,-7.93718 -0.6708,-11.8651 -6.69706,0.0466 -13.76324,2.33181 -18.81979,6.816 -2.60386,2.31007 -7.2262,9.32323 -1.48934,11.33849"
   id="path22" /><path
   fill-rule="evenodd"
   clip-rule="evenodd"
   fill="#c6b198"
   stroke="#000000"
   stroke-width="3"
   stroke-linecap="round"
   d="m 205.97203,179.31585 c 1.43205,-0.69781 2.96864,-1.24404 3.84589,-2.68608"
   id="path24" /></svg>
