<svg width="205.05" height="309.06" xmlns="http://www.w3.org/2000/svg"><path fill-rule="evenodd" clip-rule="evenodd" fill="#f6d2a2" stroke="#000" stroke-width="3" stroke-linecap="round" d="M9.5 143.23c.37 7.8 7.96 4.2 11.4 1.75 3.25-2.31 4.2-.39 4.5-4.96.18-3 .52-6.02.35-9.03-4.93-.46-10.3.74-14.33 3.76-2.09 1.56-6 6.53-1.92 8.48"/><path fill-rule="evenodd" clip-rule="evenodd" fill="#c6b198" stroke="#000" stroke-width="3" stroke-linecap="round" d="M9.5 143.23c1.1-.42 2.28-.72 3.03-1.75"/><path fill-rule="evenodd" clip-rule="evenodd" fill="#6ad7e5" stroke="#000" stroke-width="3" stroke-linecap="round" d="M27.03 50.2c-29.06-8.42-7.45-46.45 15.89-30.8zM156.17 16.54c23-16.62 43.8 20.88 17.05 30.32z"/><path fill-rule="evenodd" clip-rule="evenodd" d="M28.25 39.69c-3.84-2.09-6.65-4.92-4.3-9.48 2.16-4.23 6.2-3.77 10.03-1.68zM167.17 35.72c3.83-2.09 6.64-4.92 4.3-9.48-2.17-4.22-6.2-3.77-10.04-1.68z"/><path fill-rule="evenodd" clip-rule="evenodd" fill="#f6d2a2" stroke="#000" stroke-width="3" stroke-linecap="round" d="M193.56 142.24c-.37 7.8-7.95 4.2-11.39 1.75-3.26-2.32-4.21-.39-4.5-4.96-.18-3.01-.52-6.02-.36-9.04 4.94-.46 10.3.75 14.34 3.77 2.08 1.56 5.99 6.53 1.91 8.48"/><path fill-rule="evenodd" clip-rule="evenodd" fill="#c6b198" stroke="#000" stroke-width="3" stroke-linecap="round" d="M193.56 142.24c-1.1-.43-2.27-.73-3.02-1.75"/><path fill-rule="evenodd" clip-rule="evenodd" fill="#6ad7e5" stroke="#000" stroke-width="3" stroke-linecap="round" d="M195.51 13.12c60.37 0 116.96 8.64 146.45 66.63 26.48 65 17.07 135.1 21.1 203.8 3.47 59 11.16 127.15-16.2 181.82-28.8 57.52-100.74 71.98-160 69.86-46.56-1.66-102.8-16.85-129.08-59.38-30.82-49.9-16.23-124.1-13.99-179.63 2.65-65.77-17.81-131.74 3.8-196.1 22.4-66.76 82.86-81.85 147.92-87" transform="matrix(.48202 0 0 .49583 4.38 -5.76)"/><path fill-rule="evenodd" clip-rule="evenodd" fill="#fff" stroke="#000" stroke-width="2.91" stroke-linecap="round" d="M103.76 40.92c5.22 31.24 54.86 22.98 47.73-8.52-6.4-28.26-49.47-20.44-47.73 8.52"/><path fill-rule="evenodd" clip-rule="evenodd" fill="#fff" stroke="#000" stroke-width="2.82" stroke-linecap="round" d="M44.44 45.98c6.77 27.2 49.1 20.23 47.5-7.05-1.91-32.67-53.98-26.37-47.5 7.05"/><ellipse fill-rule="evenodd" clip-rule="evenodd" cx="99.69" cy="87.69" rx="12.72" ry="15.83"/><path fill-rule="evenodd" clip-rule="evenodd" fill="#fff" stroke="#000" stroke-width="3" stroke-linecap="round" d="M109.75 78.4c.02 4.07.9 8.63.15 12.95-1.01 1.96-2.99 2.17-4.7 2.96a6.94 6.94 0 01-5.28-4.24c-.6-4.93.23-9.7.38-14.64z"/><ellipse fill-rule="evenodd" clip-rule="evenodd" cx="67.07" cy="50.91" rx="7.15" ry="7.96"/><ellipse fill-rule="evenodd" clip-rule="evenodd" fill="#fff" cx="67.01" cy="54.89" rx="1.69" ry="2.02"/><g transform="matrix(.48202 0 0 .49583 15.34 3.6)" fill-rule="evenodd" clip-rule="evenodd"><ellipse cx="231.57" cy="91.4" rx="14.58" ry="16.06"/><ellipse fill="#fff" cx="232.5" cy="98.05" rx="3.44" ry="4.08"/></g><path fill-rule="evenodd" clip-rule="evenodd" fill="#fff" stroke="#000" stroke-width="3" stroke-linecap="round" d="M89.32 77.97c-3.12 7.77 1.74 23.32 10.2 11.85-.6-4.93.23-9.7.38-14.64z"/><g fill-rule="evenodd" clip-rule="evenodd"><path fill="#f6d2a2" stroke="#231f20" stroke-width="3" stroke-linecap="round" d="M178.43 138.67c-12.06 1.03-21.91 15.37-15.64 26.71 8.3 15.03 26.83-1.33 38.37.2 13.29.28 24.17 14.05 34.84 2.5 11.87-12.86-5.1-25.38-18.37-30.97z" transform="matrix(.48202 0 0 .49583 4.38 -5.76)"/><path d="M89.66 62.68c-.43-10.36 18.76-11.65 21.03-2.98 2.26 8.65-20.09 10.66-21.03 2.98-.76-6.13 0 0 0 0z"/></g><rect width="2.95" height="151.24" y="156.49" ry=".38" fill="#5da50f"/><rect width="2.95" height="151.24" x="202.1" y="156.49" ry=".38" fill="#5da50f"/><path d="M104.04 156.25c9.73-20.15 12.2-24.57 15.56-27.57 3.36-3 15.2-10.96 21.04-6.9 5.83 4.07 9.54 6.9 9.9 10.08a8.74 8.74 0 01-4.07 8.13c-2.65 1.6-9.74 7.52-14.85 10.6-7.9 4.8-24.57 7.6-24.92 10.44a193.64 193.64 0 01-1.95 10.25z" fill="none" stroke="#e0bc0f" stroke-width="9"/><path d="M89.64 154.32c-25.72-11.5-34.39-12.38-34.2-18.4.17-6 4.23-10.25 9.18-10.25 4.95 0 15.74 2.3 18.39 5.13 2.65 2.83 6.9 6.9 10.96 10.96 4.06 4.06 8.3 9.01 9.72 11.31a14.9 14.9 0 012.3 8.49c-.18 3.18-.35 6.2-3.71 1.77-3.38-4.46-12.64-9-12.64-9z" fill="none" stroke="#e0bc0f" stroke-width="9"/><rect width="203.15" height="151.24" x=".95" y="156.49" ry=".65" fill="#c8121c"/><rect width="48.49" height="151.41" x="82.23" y="156.71" ry=".38" fill="#e0bc0f" stroke="#e5d824" stroke-width="1.87" stroke-linejoin="round"/><rect width="46.63" height="9.62" x="83.1" y="155.38" ry=".02" fill="#e0bc0f"/></svg>